<svg width="45" height="44" viewBox="0 0 45 44" fill="none" xmlns="http://www.w3.org/2000/svg">
<path d="M44.0059 23.5686C44.352 21.832 44.5089 20.3041 44.5158 20.2398L44.7289 18.1373L42.6286 18.3541C42.5656 18.3598 41.0485 18.5193 39.3263 18.868C39.2255 18.8886 39.1281 18.9093 39.0307 18.9299C39.2392 18.2841 39.3653 17.6085 39.3653 16.9203C39.3653 14.0698 36.2188 10.1033 35.5886 9.33705L34.2491 7.70938L32.9246 9.34967C32.3058 10.1159 29.2201 14.079 29.2201 16.9214C29.2201 17.6418 29.3232 18.322 29.4962 18.9563C29.3633 18.9276 29.2269 18.8978 29.0872 18.8703C27.365 18.5204 25.849 18.3621 25.7849 18.3552L23.6846 18.1384L23.8977 20.241C23.9046 20.3052 24.0615 21.8331 24.4064 23.5697C24.6241 24.6617 24.8545 25.522 25.0836 26.2068L23.6834 26.0623L23.8965 28.1649C23.9034 28.2291 24.0604 29.757 24.4053 31.4936C25.0951 34.9509 25.904 36.0876 26.454 36.6428C27.6881 37.8885 29.0872 38.3186 30.3888 38.3186C31.1371 38.3186 31.8521 38.1752 32.4857 37.9653V44.0011H35.9255V37.9653C36.5591 38.1764 37.273 38.3186 38.0212 38.3186C39.3229 38.3186 40.722 37.8885 41.956 36.6428C42.5049 36.0887 43.315 34.952 44.0048 31.4936C44.3508 29.757 44.5078 28.2291 44.5147 28.1649L44.7278 26.0612L43.3287 26.2057C43.5579 25.522 43.7882 24.6617 44.0059 23.5686ZM39.984 22.2483C40.2567 22.1933 40.5237 22.1428 40.7804 22.0969C40.7346 22.3619 40.6841 22.6383 40.6268 22.9194C40.0677 25.7079 39.52 26.2871 39.5142 26.2929C38.4028 27.4147 36.9751 26.8251 36.3907 26.5039C36.2589 26.2791 36.071 25.9029 35.9793 25.4601C35.8132 24.664 36.0275 23.9976 36.6542 23.3656C36.66 23.361 37.2306 22.8092 39.984 22.2483ZM34.2766 13.3529C35.1979 14.7466 35.9255 16.1804 35.9255 16.9203C35.9255 18.1017 35.0191 19.5011 34.1918 20.506C33.4711 19.672 32.6587 18.4011 32.6587 16.9203C32.6587 16.1311 33.4184 14.6743 34.2766 13.3529ZM28.4283 22.2483C31.1817 22.8104 31.7524 23.361 31.7581 23.3667C32.3849 23.9988 32.5991 24.6652 32.433 25.4612C32.3413 25.8994 32.1568 26.2734 32.0251 26.4993C31.8016 26.6186 31.4338 26.7872 31.0041 26.8825C30.1516 27.0706 29.4825 26.8847 28.8981 26.294C28.8924 26.2883 28.3435 25.709 27.7855 22.9205C27.7293 22.6395 27.6778 22.3619 27.632 22.0981C27.8886 22.1428 28.1556 22.1921 28.4283 22.2483ZM32.4318 33.384C32.3402 33.8222 32.1557 34.1961 32.0239 34.4221C31.8005 34.5414 31.4327 34.7111 31.003 34.8052C30.1505 34.9933 29.4813 34.8075 28.8969 34.2167C28.8912 34.211 28.3424 33.6317 27.7843 30.8432C27.7282 30.5622 27.6766 30.2858 27.6308 30.0197C27.8875 30.0644 28.1556 30.116 28.4272 30.1711C31.1806 30.7331 31.7512 31.2837 31.7569 31.2883C32.3837 31.9226 32.598 32.5879 32.4318 33.384ZM40.628 30.8432C40.0688 33.6317 39.5211 34.211 39.5154 34.2167C38.4039 35.3386 36.9762 34.749 36.3918 34.4278C36.2601 34.203 36.0722 33.8267 35.9805 33.3828C35.8143 32.5856 36.0286 31.9203 36.6554 31.2883C36.6611 31.2826 37.2317 30.7331 39.9852 30.1711C40.2579 30.116 40.5249 30.0644 40.7815 30.0197C40.7357 30.2858 40.6841 30.5622 40.628 30.8432ZM21.5579 20.2398L21.771 18.1373L20.3571 18.283C20.5919 17.5924 20.8257 16.7207 21.048 15.6069C21.394 13.8702 21.551 12.3423 21.5579 12.2781L21.771 10.1756L19.6707 10.3923C19.6077 10.3992 18.0906 10.5575 16.3684 10.9074C16.2928 10.9223 16.2206 10.9372 16.1473 10.9533C16.31 10.3832 16.4074 9.79129 16.4074 9.19023C16.4074 6.33979 13.2609 2.37326 12.6307 1.60703L11.3084 0L9.98039 1.60244C9.3456 2.36867 6.17622 6.3375 6.17622 9.19138C6.17622 9.81308 6.25414 10.405 6.38935 10.9624C6.30341 10.9441 6.21747 10.9257 6.12924 10.9085C4.40705 10.5587 2.89112 10.4004 2.8281 10.3935L0.727783 10.1756L0.940908 12.2781C0.946637 12.3423 1.10362 13.8702 1.4508 15.6069C1.6731 16.7207 1.90685 17.5924 2.14174 18.283L0.727783 18.1373L0.940908 20.2398C0.946637 20.3041 1.10362 21.832 1.4508 23.5686C1.66851 24.6606 1.89882 25.5209 2.12799 26.2057L0.727783 26.0612L0.940908 28.1637C0.946637 28.228 1.10362 29.7558 1.4508 31.4925C2.1406 34.9497 2.94955 36.0864 3.49955 36.6416C4.73476 37.8873 6.13382 38.3175 7.43435 38.3175C8.18257 38.3175 8.89758 38.1741 9.53122 37.9642V44H12.9699V37.9642C13.6035 38.1752 14.3185 38.3175 15.0667 38.3175C16.3673 38.3175 17.7675 37.8873 19.0015 36.6416C19.5504 36.0876 20.3605 34.9509 21.0503 31.4925C21.3963 29.7558 21.5533 28.228 21.5602 28.1637L21.7733 26.0612L20.3742 26.2057C20.6034 25.522 20.8337 24.6617 21.0514 23.5686C21.3952 21.8331 21.5522 20.3041 21.5579 20.2398ZM13.4351 26.5051C13.3033 26.2802 13.1154 25.904 13.0237 25.4612C12.8576 24.6652 13.0718 23.9988 13.6986 23.3667C13.7043 23.361 14.275 22.8104 17.0284 22.2483C17.3011 22.1933 17.5681 22.1428 17.8248 22.0969C17.7789 22.3619 17.7285 22.6383 17.6712 22.9194C17.1121 25.7079 16.5643 26.2871 16.5586 26.2929C15.4472 27.4147 14.0195 26.8251 13.4351 26.5051ZM5.47153 22.2483C8.22497 22.8104 8.7956 23.361 8.80132 23.3667C9.4281 23.9988 9.64237 24.6652 9.47622 25.4612C9.38455 25.8994 9.20008 26.2734 9.0683 26.4993C8.84372 26.6186 8.47705 26.7872 8.04737 26.8825C7.19487 27.0706 6.5257 26.8847 5.94133 26.294C5.9356 26.2883 5.38674 25.709 4.82872 22.9205C4.77257 22.6395 4.72101 22.3619 4.67518 22.0981C4.93185 22.1428 5.19883 22.1921 5.47153 22.2483ZM17.0273 14.2866C17.3 14.2304 17.5669 14.1799 17.8236 14.1352C17.7778 14.4002 17.7274 14.6766 17.6701 14.9576C17.1109 17.7461 16.5632 18.3254 16.5575 18.3311C15.446 19.453 14.0183 18.8634 13.4339 18.5433C13.3022 18.3185 13.1142 17.9423 13.0226 17.4984C12.8564 16.7012 13.0707 16.0359 13.6975 15.4038C13.7032 15.3993 14.2738 14.8487 17.0273 14.2866ZM11.2992 5.59191C12.2308 6.99476 12.9687 8.44464 12.9687 9.19023C12.9687 10.3797 12.0498 11.7895 11.2179 12.7977C10.472 11.965 9.61601 10.6837 9.61601 9.19023C9.61601 8.44579 10.3608 6.99476 11.2992 5.59191ZM5.47153 14.2866C8.22497 14.8487 8.7956 15.3981 8.80132 15.4038C9.4281 16.037 9.64237 16.7023 9.47622 17.4984C9.38455 17.9365 9.20008 18.3105 9.0683 18.5365C8.84372 18.6558 8.47705 18.8244 8.04737 18.9196C7.19487 19.1088 6.5257 18.9219 5.94133 18.3311C5.9356 18.3254 5.38674 17.7461 4.82872 14.9576C4.77257 14.6766 4.72101 14.4002 4.67518 14.1352C4.93185 14.1811 5.19883 14.2316 5.47153 14.2866ZM9.47507 33.384C9.38341 33.8222 9.19893 34.1961 9.06716 34.4221C8.84258 34.5414 8.47591 34.7111 8.04622 34.8052C7.19372 34.9933 6.52455 34.8075 5.94018 34.2167C5.93445 34.211 5.3856 33.6317 4.82757 30.8432C4.77143 30.5622 4.71987 30.2858 4.67403 30.0197C4.9307 30.0644 5.19882 30.116 5.47039 30.1711C8.22382 30.7331 8.79445 31.2837 8.80018 31.2883C9.4281 31.9226 9.64237 32.5879 9.47507 33.384ZM17.6712 30.8432C17.1121 33.6317 16.5643 34.211 16.5586 34.2167C15.4472 35.3386 14.0195 34.749 13.4351 34.4278C13.3033 34.203 13.1154 33.8267 13.0237 33.3828C12.8576 32.5856 13.0718 31.9203 13.6986 31.2883C13.7043 31.2826 14.275 30.7331 17.0284 30.1711C17.3011 30.116 17.5681 30.0644 17.8248 30.0197C17.7789 30.2858 17.7274 30.5622 17.6712 30.8432Z" fill="white"/>
</svg>
