<svg width="50" height="45" viewBox="0 0 50 45" fill="none" xmlns="http://www.w3.org/2000/svg">
<path d="M49.4196 26.6009C49.4106 26.4686 49.3894 26.3374 49.3561 26.209L44.1706 12.4005C45.1143 11.7901 45.8904 10.9534 46.4282 9.9665C46.9661 8.9796 47.2486 7.8739 47.25 6.75C47.25 6.1533 47.013 5.581 46.591 5.15901C46.1691 4.73705 45.5968 4.5 45 4.5C44.4033 4.5 43.831 4.73705 43.409 5.15901C42.9871 5.581 42.75 6.1533 42.75 6.75C42.7499 7.2514 42.5823 7.7384 42.2738 8.1337C41.9654 8.529 41.5338 8.8101 41.0475 8.9322C40.5612 9.0544 40.0481 9.0106 39.5894 8.808C39.1308 8.6053 38.753 8.2553 38.5159 7.8135C37.9385 6.7886 37.0943 5.9394 36.0729 5.35594C35.0515 4.77251 33.8911 4.47672 32.715 4.5H27V2.25C27 1.65326 26.763 1.08097 26.341 0.65901C25.9191 0.23705 25.3468 0 24.75 0C24.1533 0 23.581 0.23705 23.159 0.65901C22.7371 1.08097 22.5 1.65326 22.5 2.25V4.5H16.785C15.609 4.47672 14.4486 4.77251 13.4272 5.35594C12.4058 5.9394 11.5615 6.7886 10.9842 7.8135C10.7471 8.2553 10.3693 8.6053 9.91056 8.808C9.45196 9.0106 8.93886 9.0544 8.45256 8.9322C7.96626 8.8101 7.53466 8.529 7.22616 8.1337C6.91778 7.7384 6.75018 7.2514 6.75 6.75C6.75 6.1533 6.51295 5.581 6.09099 5.15901C5.66903 4.73705 5.09674 4.5 4.5 4.5C3.90326 4.5 3.33097 4.73705 2.90901 5.15901C2.48705 5.581 2.25 6.1533 2.25 6.75C2.25147 7.8739 2.53398 8.9796 3.07182 9.9665C3.60965 10.9534 4.38574 11.7901 5.32946 12.4005L0.144 26.209C0.11071 26.3374 0.08948 26.4686 0.08057 26.6009C0.04106 26.7311 0.01408 26.8647 0 27C0 27.0209 0.00605006 27.0401 0.00619006 27.061C0.00686006 27.0906 0.0129401 27.118 0.0149601 27.1475C0.0499901 29.5074 1.01204 31.7587 2.69325 33.4152C4.37446 35.0716 6.63986 36.0001 8.99996 36.0001C11.3602 36.0001 13.6256 35.0716 15.3068 33.4152C16.988 31.7587 17.95 29.5074 17.9851 27.1475C17.987 27.118 17.9932 27.0906 17.9939 27.061C17.994 27.0401 18 27.0209 18 27C17.986 26.8647 17.959 26.7311 17.9196 26.6009C17.9106 26.4686 17.8894 26.3374 17.8561 26.209L12.6645 12.3845C13.618 11.776 14.4026 10.9369 14.9458 9.9448C15.1422 9.6394 15.4156 9.3913 15.7385 9.2254C16.0615 9.0595 16.4225 8.9818 16.785 9H22.5V40.5H15.75C15.1533 40.5 14.581 40.7371 14.159 41.159C13.7371 41.581 13.5 42.1533 13.5 42.75C13.5 43.3467 13.7371 43.919 14.159 44.341C14.581 44.7629 15.1533 45 15.75 45H33.75C34.3468 45 34.9191 44.7629 35.341 44.341C35.763 43.919 36 43.3467 36 42.75C36 42.1533 35.763 41.581 35.341 41.159C34.9191 40.7371 34.3468 40.5 33.75 40.5H27V9H32.715C33.0776 8.9818 33.4386 9.0595 33.7615 9.2254C34.0844 9.3913 34.3578 9.6395 34.5541 9.9448C35.0974 10.9369 35.882 11.776 36.8355 12.3845L31.644 26.209C31.6108 26.3374 31.5895 26.4686 31.5806 26.6009C31.5411 26.7311 31.5141 26.8647 31.5 27C31.5 27.0209 31.5061 27.0401 31.5062 27.061C31.5069 27.0906 31.513 27.118 31.515 27.1475C31.55 29.5074 32.5121 31.7587 34.1933 33.4152C35.8745 35.0716 38.1399 36.0001 40.5 36.0001C42.8602 36.0001 45.1256 35.0716 46.8068 33.4152C48.488 31.7587 49.45 29.5074 49.4851 27.1475C49.487 27.118 49.4932 27.0906 49.4939 27.061C49.494 27.0401 49.5 27.0209 49.5 27C49.486 26.8647 49.459 26.7311 49.4196 26.6009ZM8.99996 15.4249L12.5019 24.75H5.4981L8.99996 15.4249ZM12.876 29.25C12.4789 29.9275 11.9133 30.4908 11.2341 30.8851C10.5549 31.2793 9.78526 31.4912 8.99996 31.5C8.21036 31.4997 7.43466 31.2916 6.75081 30.8967C6.06699 30.5018 5.49912 29.9339 5.10424 29.25H12.876ZM40.5 15.4249L44.0019 24.75H36.9981L40.5 15.4249ZM40.5 31.5C39.7104 31.4997 38.9347 31.2916 38.2508 30.8967C37.567 30.5018 36.9992 29.9339 36.6043 29.25H44.376C43.9789 29.9275 43.4133 30.4908 42.7341 30.8851C42.0549 31.2793 41.2853 31.4912 40.5 31.5Z" fill="white"/>
</svg>
