<svg width="58" height="44" viewBox="0 0 58 44" fill="none" xmlns="http://www.w3.org/2000/svg">
<path d="M56.3392 15.4275L53.5892 13.915L28.8391 0.165H28.5366C28.3681 0.0937 28.1931 0.0385 28.0141 0H27.4916H26.9966C26.8088 0.0385 26.6247 0.0937 26.4466 0.165H26.1441L1.39411 13.915C0.97089 14.1549 0.61887 14.5027 0.37395 14.923C0.12904 15.3433 0 15.8211 0 16.3075C0 16.794 0.12904 17.2717 0.37395 17.692C0.61887 18.1124 0.97089 18.4602 1.39411 18.7L8.24156 22.495V35.53C8.24156 37.7181 9.11076 39.8165 10.658 41.3637C12.2052 42.9108 14.3036 43.78 16.4916 43.78H38.4917C40.6797 43.78 42.7781 42.9108 44.3253 41.3637C45.8725 39.8165 46.7417 37.7181 46.7417 35.53V22.495L52.2417 19.415V27.28C52.2417 28.0094 52.5314 28.7088 53.0471 29.2246C53.5628 29.7403 54.2623 30.03 54.9917 30.03C55.721 30.03 56.4205 29.7403 56.9362 29.2246C57.4519 28.7088 57.7417 28.0094 57.7417 27.28V17.82C57.7408 17.3327 57.6105 16.8544 57.3641 16.434C57.1176 16.0136 56.7639 15.6663 56.3392 15.4275ZM41.2417 35.53C41.2417 36.2594 40.9519 36.9588 40.4362 37.4746C39.9205 37.9903 39.221 38.28 38.4917 38.28H16.4916C15.7623 38.28 15.0628 37.9903 14.5471 37.4746C14.0314 36.9588 13.7416 36.2594 13.7416 35.53V25.5475L26.1441 32.4225L26.5566 32.5875H26.8041C27.0324 32.6163 27.2634 32.6163 27.4916 32.5875C27.7199 32.6163 27.9509 32.6163 28.1791 32.5875H28.4267C28.5726 32.5567 28.7122 32.5009 28.8391 32.4225L41.2417 25.5475V35.53ZM27.4916 26.895L8.40656 16.28L27.4916 5.665L46.5767 16.28L27.4916 26.895Z" fill="white"/>
</svg>
