<svg width="47" height="47" viewBox="0 0 47 47" fill="none" xmlns="http://www.w3.org/2000/svg">
<path d="M23.4747 0C19.5366 0.0040267 15.6624 0.995169 12.2066 2.88274C8.75076 4.7703 5.82368 7.49402 3.69317 10.8047C0.696662 15.5021 -0.535958 21.1096 0.214512 26.63C0.964982 32.1504 3.6499 37.2259 7.79178 40.9537C11.9337 44.6815 17.2641 46.8201 22.835 46.9892C28.4059 47.1582 33.8562 45.3467 38.2167 41.8769C42.0117 38.8235 44.7661 34.6687 46.1 29.9851C47.434 25.3015 47.2819 20.3196 45.6649 15.726C44.0478 11.1324 41.0452 7.15315 37.071 4.33664C33.0968 1.52013 28.3465 0.00498304 23.4747 0ZM28.1846 5.31994C31.4387 6.16193 34.4083 7.85886 36.7851 10.2347C39.162 12.6106 40.8596 15.5789 41.702 18.8316C37.7645 18.9425 33.9212 20.0609 30.5395 22.0801C28.8414 20.1545 26.9473 18.411 24.8877 16.8779C26.9627 13.3727 28.0983 9.39188 28.1846 5.31994ZM23.4747 4.70791C23.467 8.0859 22.5389 11.398 20.7901 14.2885C20.4368 14.1002 20.1072 13.8883 19.7539 13.7236C16.7216 12.1243 13.4793 10.9594 10.1222 10.2632C11.872 8.50371 13.9524 7.10714 16.2439 6.15378C18.5354 5.20041 20.9927 4.70905 23.4747 4.70791ZM6.99009 14.5004C10.6837 15.0132 14.2608 16.16 17.5638 17.8901L17.87 18.0784C16.1318 19.8142 14.0681 21.1901 11.797 22.1272C9.52586 23.0643 7.09212 23.5443 4.63515 23.5396C4.64825 20.3766 5.45814 17.2679 6.99009 14.5004ZM18.7648 41.7592C15.5107 40.9172 12.5412 39.2203 10.1643 36.8444C7.78742 34.4685 6.08978 31.5002 5.24744 28.2475C8.39282 28.1777 11.4916 27.4722 14.357 26.1736C17.2224 24.875 19.7952 23.0101 21.9205 20.6913C23.6229 21.9492 25.2001 23.3681 26.6303 24.9284C24.2457 27.0538 22.3186 29.6419 20.9664 32.5354C19.6142 35.4289 18.8651 38.5671 18.7648 41.7592ZM23.4747 42.3712C23.4798 39.7851 24.0177 37.2278 25.0549 34.8586C26.0921 32.4894 27.6064 30.3591 29.5034 28.6006C29.6447 28.7889 29.786 28.9537 29.9037 29.142C31.8771 32.1626 33.341 35.4867 34.2368 38.9815C31.0849 41.1936 27.3259 42.3776 23.4747 42.3712ZM38.0989 35.3093C37.0762 32.1951 35.6512 29.2275 33.86 26.482L33.3655 25.8935C36.1036 24.3709 39.181 23.5614 42.3143 23.5396C42.2909 27.8282 40.8038 31.9803 38.0989 35.3093Z" fill="white"/>
</svg>
