<svg width="46" height="46" viewBox="0 0 46 46" fill="none" xmlns="http://www.w3.org/2000/svg">
<path d="M12.4775 32C13.3726 32 14.2311 31.6444 14.864 31.0115C15.497 30.3786 15.8525 29.5201 15.8525 28.625C15.8635 28.5128 15.8635 28.3997 15.8525 28.2875L22.13 22.01H22.6475H23.165L26.7875 25.6325C26.7875 25.6325 26.7875 25.745 26.7875 25.8125C26.7875 26.7076 27.1431 27.5661 27.7761 28.199C28.409 28.8319 29.2674 29.1875 30.1625 29.1875C31.0576 29.1875 31.9161 28.8319 32.549 28.199C33.182 27.5661 33.5375 26.7076 33.5375 25.8125V25.6325L41.7275 17.375C42.3951 17.375 43.0476 17.1771 43.6026 16.8062C44.1576 16.4354 44.5902 15.9083 44.8456 15.2916C45.1011 14.6749 45.1679 13.9963 45.0377 13.3416C44.9075 12.6869 44.586 12.0855 44.114 11.6135C43.642 11.1415 43.0407 10.8201 42.386 10.6898C41.7313 10.5596 41.0527 10.6265 40.436 10.8819C39.8193 11.1374 39.2922 11.5699 38.9213 12.125C38.5505 12.68 38.3525 13.3325 38.3525 14C38.3416 14.1122 38.3416 14.2253 38.3525 14.3375L30.23 22.46H29.87L25.9775 18.5C25.9775 17.6049 25.622 16.7464 24.989 16.1135C24.3561 15.4806 23.4976 15.125 22.6025 15.125C21.7074 15.125 20.849 15.4806 20.2161 16.1135C19.5831 16.7464 19.2275 17.6049 19.2275 18.5L12.4775 25.25C11.5824 25.25 10.724 25.6056 10.0911 26.2385C9.4581 26.8714 9.1025 27.7299 9.1025 28.625C9.1025 29.5201 9.4581 30.3786 10.0911 31.0115C10.724 31.6444 11.5824 32 12.4775 32ZM42.8525 41H4.60254V2.75C4.60254 2.15326 4.36549 1.58097 3.94353 1.15901C3.52157 0.73705 2.94928 0.5 2.35254 0.5C1.7558 0.5 1.18351 0.73705 0.761549 1.15901C0.339589 1.58097 0.102539 2.15326 0.102539 2.75V43.25C0.102539 43.8467 0.339589 44.419 0.761549 44.841C1.18351 45.2629 1.7558 45.5 2.35254 45.5H42.8525C43.4493 45.5 44.0216 45.2629 44.4435 44.841C44.8655 44.419 45.1025 43.8467 45.1025 43.25C45.1025 42.6533 44.8655 42.081 44.4435 41.659C44.0216 41.2371 43.4493 41 42.8525 41Z" fill="white"/>
</svg>
