<svg width="46" height="41" viewBox="0 0 46 41" fill="none" xmlns="http://www.w3.org/2000/svg">
<path d="M27.5275 17.9416H25.2358V15.65C25.2358 15.0422 24.9944 14.4593 24.5646 14.0295C24.1348 13.5997 23.5519 13.3583 22.9442 13.3583C22.3364 13.3583 21.7535 13.5997 21.3237 14.0295C20.8939 14.4593 20.6525 15.0422 20.6525 15.65V17.9416H18.3608C17.753 17.9416 17.1701 18.1831 16.7404 18.6128C16.3106 19.0426 16.0692 19.6255 16.0692 20.2333C16.0692 20.8411 16.3106 21.424 16.7404 21.8537C17.1701 22.2835 17.753 22.525 18.3608 22.525H20.6525V24.8166C20.6525 25.4244 20.8939 26.0073 21.3237 26.4371C21.7535 26.8668 22.3364 27.1083 22.9442 27.1083C23.5519 27.1083 24.1348 26.8668 24.5646 26.4371C24.9944 26.0073 25.2358 25.4244 25.2358 24.8166V22.525H27.5275C28.1353 22.525 28.7182 22.2835 29.1479 21.8537C29.5777 21.424 29.8192 20.8411 29.8192 20.2333C29.8192 19.6255 29.5777 19.0426 29.1479 18.6128C28.7182 18.1831 28.1353 17.9416 27.5275 17.9416ZM41.6442 4.1916C39.2006 1.77324 35.9731 0.307871 32.544 0.0599414C29.115 -0.187999 25.7102 0.797831 22.9442 2.8395C20.0284 0.670791 16.3991 -0.312619 12.7873 0.0873314C9.1755 0.487291 5.8493 2.24091 3.47868 4.995C1.10803 7.7492 -0.131041 11.2993 0.0109888 14.9304C0.153029 18.5615 1.66561 22.004 4.24416 24.5645L17.9942 38.4291C19.2832 39.7166 21.0306 40.4397 22.8525 40.4397C24.6744 40.4397 26.4218 39.7166 27.7108 38.4291L41.4608 24.5645C42.815 23.2414 43.8944 21.6638 44.637 19.9222C45.3795 18.1806 45.7705 16.3094 45.7875 14.4162C45.8046 12.523 45.4473 10.6451 44.7362 8.8904C44.0252 7.1357 42.9743 5.5389 41.6442 4.1916ZM38.4129 21.2875L24.6629 35.0375C24.4499 35.2522 24.1964 35.4227 23.9171 35.5391C23.6379 35.6554 23.3384 35.7153 23.0358 35.7153C22.7333 35.7153 22.4338 35.6554 22.1545 35.5391C21.8752 35.4227 21.6218 35.2522 21.4087 35.0375L7.6587 21.2875C5.8615 19.4503 4.8551 16.9825 4.8551 14.4125C4.8551 11.8424 5.8615 9.3746 7.6587 7.5375C9.4901 5.7293 11.9601 4.7154 14.5337 4.7154C17.1073 4.7154 19.5773 5.7293 21.4087 7.5375C21.6218 7.7523 21.8752 7.9227 22.1545 8.0391C22.4338 8.1554 22.7333 8.2153 23.0358 8.2153C23.3384 8.2153 23.6379 8.1554 23.9171 8.0391C24.1964 7.9227 24.4499 7.7523 24.6629 7.5375C26.4943 5.7293 28.9643 4.7154 31.5379 4.7154C34.1115 4.7154 36.5815 5.7293 38.4129 7.5375C40.2239 9.3766 41.239 11.8542 41.239 14.4354C41.239 17.0165 40.2239 19.4941 38.4129 21.3333V21.2875Z" fill="white"/>
</svg>
