<svg width="45" height="44" viewBox="0 0 45 44" fill="none" xmlns="http://www.w3.org/2000/svg">
<path d="M30.9341 23.1106C32.5595 19.6917 33.3833 15.8333 33.3833 11.6421V2.78446L33.3881 0L30.901 1.24274C30.8501 1.26823 25.6778 3.76818 17.0551 3.76818C8.43298 3.76818 3.26069 1.26754 3.2139 1.24481L0.727539 0.00206665V11.6428C0.727539 15.8029 1.55197 19.6435 3.17811 23.0555C4.48357 25.7966 6.30172 28.2593 8.583 30.3756C12.4581 33.9715 16.3366 35.3259 16.4997 35.3817L17.0482 35.5697L17.5987 35.3858C17.7625 35.3314 21.6465 34.0108 25.5264 30.4286C27.8084 28.3213 29.6279 25.8592 30.9341 23.1106ZM23.2981 27.804C20.7519 30.1854 18.1637 31.4385 17.0626 31.9049C15.9581 31.4282 13.3672 30.153 10.8182 27.7578C6.40357 23.6087 4.16495 18.1865 4.16495 11.6428V5.29612C6.71462 6.13449 11.1375 7.20984 17.0557 7.20984C22.974 7.20984 27.3969 6.13449 29.9466 5.29612V11.6428C29.9459 18.2395 27.7093 23.6769 23.2981 27.804ZM21.4105 20.3744L23.9842 22.6553C23.8755 22.7779 21.2687 25.6698 16.8865 25.6698C12.5042 25.6698 9.8974 22.7779 9.78867 22.6553L12.3624 20.3744L12.3528 20.3633C12.423 20.4398 14.0925 22.2282 16.8865 22.2282C19.6804 22.2282 21.3499 20.4398 21.4201 20.3633L21.4105 20.3744ZM11.2758 14.3122C10.2828 14.3122 9.66274 14.9425 9.65723 14.9494L7.08348 12.6685C7.24589 12.4846 8.7461 10.8712 11.2765 10.8712C13.8069 10.8712 15.3064 12.4846 15.4688 12.6685L12.8944 14.9487C12.8944 14.9487 12.9006 14.957 12.915 14.9722C12.8896 14.9453 12.2723 14.3122 11.2758 14.3122ZM27.028 12.6685L24.4543 14.9487C24.4543 14.9487 24.4611 14.957 24.4749 14.9722C24.4488 14.9453 23.8322 14.3122 22.835 14.3122C21.842 14.3122 21.2226 14.9425 21.2164 14.9494L18.6427 12.6685C18.8058 12.4846 20.3046 10.8712 22.835 10.8712C25.3661 10.8706 26.8656 12.4846 27.028 12.6685ZM34.7507 22.948C35.1594 21.9216 35.5214 20.8311 35.8242 19.6731C37.354 20.1291 38.2479 21.0915 38.3718 21.2313L35.7974 23.5122C35.7974 23.5122 35.8043 23.5205 35.818 23.535C35.7981 23.5136 35.4065 23.1141 34.7507 22.948ZM44.7278 8.43054V20.0733C44.7278 24.2645 43.9033 28.1229 42.2786 31.5418C40.9717 34.2905 39.1522 36.7525 36.8695 38.8598C32.9903 42.442 29.1063 43.7633 28.9425 43.8177L28.392 44.0009L27.8435 43.8129C27.6219 43.7364 23.4612 42.2739 19.4582 38.3625C20.1897 38.0669 21.3616 37.5413 22.7621 36.7243C25.1156 38.7758 27.3921 39.8952 28.4078 40.3354C29.5089 39.869 32.0964 38.6166 34.6412 36.2352C39.0531 32.1081 41.2903 26.6707 41.2903 20.074V13.726C40.1273 14.1083 38.5735 14.5402 36.6672 14.8971C36.7677 13.8555 36.8214 12.7719 36.8214 11.6442V11.3562C40.2808 10.6274 42.2187 9.68843 42.2455 9.67535L44.7278 8.43054ZM35.328 31.2394L32.7536 33.5196L32.7632 33.5306C32.7013 33.4624 31.3704 32.0392 29.1077 31.7271C29.9238 30.8722 30.7483 29.9002 31.5397 28.8035C33.8994 29.6543 35.2503 31.1519 35.328 31.2394Z" fill="white"/>
</svg>
