<svg width="39" height="45" viewBox="0 0 39 45" fill="none" xmlns="http://www.w3.org/2000/svg">
<path d="M39.0001 22.06C38.999 21.6907 38.8956 21.3289 38.7015 21.0147C38.5073 20.7005 38.2299 20.4462 37.9001 20.28L25.6601 14.16V6.16C25.6601 4.52627 25.0111 2.95945 23.8559 1.80422C22.7007 0.649 21.1338 0 19.5001 0C17.8664 0 16.2996 0.649 15.1443 1.80422C13.9891 2.95945 13.3401 4.52627 13.3401 6.16V14.16L1.10007 20.28C0.77024 20.4462 0.492869 20.7005 0.298709 21.0147C0.104559 21.3289 0.0011897 21.6907 6.9698e-05 22.06V28.72C-0.0026503 29.0459 0.0742798 29.3674 0.22417 29.6567C0.37405 29.946 0.592349 30.1943 0.860069 30.38C1.12627 30.5624 1.43265 30.6777 1.75305 30.716C2.07346 30.7543 2.39837 30.7145 2.70007 30.6L13.3401 26.6V34.06L9.70006 35.26C9.30286 35.3942 8.95776 35.6498 8.71376 35.9908C8.46966 36.3317 8.33896 36.7408 8.34006 37.16V42.06C8.34116 42.3247 8.39476 42.5864 8.49776 42.8302C8.60076 43.0739 8.75106 43.2948 8.94006 43.48C9.31256 43.8495 9.81536 44.0578 10.3401 44.06H28.6801C29.2105 44.06 29.7193 43.8493 30.0943 43.4743C30.4694 43.0992 30.6801 42.5905 30.6801 42.06V37.06C30.6812 36.6408 30.5505 36.2317 30.3064 35.8908C30.0624 35.5498 29.7173 35.2942 29.3201 35.16L25.6601 34.06V26.62L36.3001 30.62C36.6018 30.7345 36.9267 30.7743 37.2471 30.736C37.5675 30.6977 37.8739 30.5824 38.1401 30.4C38.4078 30.2143 38.6261 29.966 38.776 29.6767C38.9259 29.3874 39.0028 29.0659 39.0001 28.74V22.06ZM24.3801 21.86C24.0757 21.7421 23.747 21.7005 23.4228 21.7389C23.0985 21.7772 22.7886 21.8943 22.5201 22.08C22.2552 22.2638 22.0386 22.509 21.8889 22.7945C21.7391 23.0801 21.6606 23.3976 21.6601 23.72V35.4C21.6604 35.8218 21.794 36.2327 22.0419 36.5739C22.2898 36.9151 22.6391 37.1693 23.0401 37.3L26.6601 38.5V40.06H12.3201V38.5L15.9401 37.3C16.3411 37.1693 16.6905 36.9151 16.9383 36.5739C17.1862 36.2327 17.3198 35.8218 17.3201 35.4V23.72C17.3196 23.3976 17.2411 23.0801 17.0914 22.7945C16.9416 22.509 16.725 22.2638 16.4601 22.08C16.1916 21.8943 15.8817 21.7772 15.5575 21.7389C15.2332 21.7005 14.9045 21.7421 14.6001 21.86L3.98007 25.86V23.3L16.2001 17.18C16.5337 17.0166 16.8151 16.7635 17.013 16.4491C17.2108 16.1347 17.3171 15.7715 17.3201 15.4V6.22C17.3201 5.64713 17.5477 5.09773 17.9528 4.69265C18.3578 4.28757 18.9072 4.06 19.4801 4.06C20.053 4.06 20.6024 4.28757 21.0075 4.69265C21.4125 5.09773 21.6401 5.64713 21.6401 6.22V15.4C21.6431 15.7715 21.7494 16.1347 21.9473 16.4491C22.1451 16.7635 22.4265 17.0166 22.7601 17.18L34.9801 23.3V25.84L24.3801 21.86Z" fill="white"/>
</svg>
