<svg width="37" height="32" viewBox="0 0 37 32" fill="none" xmlns="http://www.w3.org/2000/svg">
<path d="M31.7143 12C33.1156 11.9982 34.459 11.4358 35.4499 10.436C36.4408 9.43614 36.9982 8.08061 37 6.66667V2.66667H33.0357C31.6828 2.66868 30.3826 3.19685 29.4058 4.14133C28.7212 2.88803 27.7162 1.8428 26.4954 1.11445C25.2745 0.386099 23.8825 0.00126112 22.4643 0H18.5V4C18.5024 6.12097 19.3386 8.15437 20.8249 9.65413C22.3113 11.1539 24.3265 11.9975 26.4286 12H27.75V29.3333H11.8929V22.6667H13.2143C14.6156 22.6649 15.959 22.1024 16.9499 21.1026C17.9408 20.1028 18.4983 18.7473 18.5 17.3333V13.3333H14.5357C13.1828 13.3354 11.8826 13.8635 10.9058 14.808C10.2212 13.5547 9.21618 12.5095 7.99536 11.7811C6.77454 11.0528 5.38255 10.6679 3.96429 10.6667H0V14.6667C0.00244809 16.7876 0.838563 18.821 2.32493 20.3208C3.81129 21.8205 5.82653 22.6642 7.92857 22.6667H9.25V29.3333H0V32H37V29.3333H30.3929V12H31.7143ZM30.3929 8C30.3936 7.29297 30.6722 6.61511 31.1677 6.11516C31.6632 5.61522 32.335 5.33404 33.0357 5.33333H34.3571V6.66667C34.3564 7.37369 34.0778 8.05156 33.5823 8.55151C33.0868 9.05145 32.415 9.33263 31.7143 9.33333H30.3929V8ZM11.8929 18.6667C11.8936 17.9596 12.1722 17.2818 12.6677 16.7818C13.1632 16.2819 13.835 16.0007 14.5357 16H15.8571V17.3333C15.8564 18.0404 15.5778 18.7182 15.0823 19.2182C14.5868 19.7181 13.915 19.9993 13.2143 20H11.8929V18.6667ZM9.25 20H7.92857C6.52725 19.9982 5.18382 19.4358 4.19294 18.436C3.20205 17.4361 2.64461 16.0806 2.64286 14.6667V13.3333H3.96429C5.36561 13.3351 6.70903 13.8976 7.69992 14.8974C8.6908 15.8972 9.24825 17.2527 9.25 18.6667V20ZM27.75 9.33333H26.4286C25.0272 9.33157 23.6838 8.7691 22.6929 7.76929C21.7021 6.76948 21.1446 5.41395 21.1429 4V2.66667H22.4643C23.8656 2.66843 25.209 3.2309 26.1999 4.23071C27.1908 5.23052 27.7483 6.58605 27.75 8V9.33333Z" fill="#606362"/>
</svg>
