<svg width="31" height="37" viewBox="0 0 31 37" fill="none" xmlns="http://www.w3.org/2000/svg">
<path d="M12.682 0L14.0911 2.84615H28.1818L29.5909 0H12.682ZM14.0911 4.26923V7.82692C14.0911 7.82692 14.0911 15.6538 21.1365 15.6538C28.1818 15.6538 28.1818 7.82692 28.1818 7.82692V4.26923H14.0911ZM2.77335 8.49862C2.02689 8.5106 1.31564 8.82123 0.795726 9.36232C0.275817 9.9034 -0.0102646 10.6307 0.000281568 11.3846V22.7692C-6.82329e-05 23.1956 0.0944599 23.6167 0.276881 24.0013C0.459303 24.3858 0.724955 24.7241 1.05421 24.991C1.38346 25.258 1.7679 25.4468 2.17911 25.5435C2.59033 25.6403 3.01781 25.6425 3.42998 25.5499L11.2729 23.7853V37L27.8408 17.2762C27.4407 17.1515 27.0252 17.0844 26.6065 17.0769H15.5001L5.63659 19.2229V11.3846C5.64192 11.0036 5.57146 10.6255 5.42939 10.2725C5.28731 9.91958 5.07651 9.59903 4.80949 9.32988C4.54247 9.06074 4.22466 8.84848 3.8749 8.70569C3.52514 8.5629 3.15055 8.49248 2.77335 8.49862ZM30.2898 19.1005L15.2521 37H31V21.5141C31 20.6204 30.7351 19.795 30.2898 19.1005Z" fill="#606362"/>
</svg>
