<svg width="20" height="20" viewBox="0 0 20 20" fill="none" xmlns="http://www.w3.org/2000/svg">
<path fill-rule="evenodd" clip-rule="evenodd" d="M18.479 5.57827L13.093 1.12502C11.2787 -0.375006 8.72126 -0.375008 6.90703 1.12502L1.52097 5.57827C0.550588 6.38059 0 7.59706 0 8.8663V16.8739C0 18.5419 1.28643 20 3 20H5C6.65685 20 8 18.6569 8 17V13.6848C8 13.0044 8.50443 12.5587 9 12.5587H11C11.4956 12.5587 12 13.0044 12 13.6848V17C12 18.6569 13.3431 20 15 20H17C18.7136 20 20 18.5419 20 16.8739V8.8663C20 7.59706 19.4494 6.38059 18.479 5.57827Z" fill="#0B7675"/>
</svg>
