<svg width="21" height="21" viewBox="0 0 21 21" fill="none" xmlns="http://www.w3.org/2000/svg">
<path d="M16.5303 15.4697C16.2374 15.1768 15.7626 15.1768 15.4697 15.4697C15.1768 15.7626 15.1768 16.2374 15.4697 16.5303L16.5303 15.4697ZM19.4697 20.5303C19.7626 20.8232 20.2374 20.8232 20.5303 20.5303C20.8232 20.2374 20.8232 19.7626 20.5303 19.4697L19.4697 20.5303ZM15.25 8.66666C15.25 12.3025 12.3026 15.25 8.66668 15.25V16.75C13.131 16.75 16.75 13.131 16.75 8.66666H15.25ZM8.66668 15.25C5.0308 15.25 2.08334 12.3025 2.08334 8.66666H0.583344C0.583344 13.131 4.20237 16.75 8.66668 16.75V15.25ZM2.08334 8.66666C2.08334 5.03079 5.0308 2.08333 8.66668 2.08333V0.583328C4.20237 0.583328 0.583344 4.20236 0.583344 8.66666H2.08334ZM8.66668 2.08333C12.3026 2.08333 15.25 5.03079 15.25 8.66666H16.75C16.75 4.20236 13.131 0.583328 8.66668 0.583328V2.08333ZM15.4697 16.5303L19.4697 20.5303L20.5303 19.4697L16.5303 15.4697L15.4697 16.5303Z" fill="#747474"/>
</svg>
