<svg width="28" height="28" viewBox="0 0 28 28" fill="none" xmlns="http://www.w3.org/2000/svg">
<path fill-rule="evenodd" clip-rule="evenodd" d="M20.4153 16.779C20.0659 16.6052 18.3532 15.7675 18.0344 15.6509C17.7155 15.5354 17.4834 15.4782 17.2501 15.8259C17.018 16.1712 16.351 16.9529 16.1482 17.1839C15.9442 17.416 15.7414 17.444 15.3932 17.2714C15.0451 17.0964 13.922 16.7312 12.5915 15.5505C11.5563 14.6312 10.8565 13.496 10.6537 13.1484C10.4509 12.8019 10.6314 12.614 10.8061 12.4414C10.9632 12.2862 11.1543 12.0365 11.3289 11.8347C11.5036 11.6317 11.561 11.487 11.6771 11.2549C11.7943 11.0239 11.7357 10.822 11.6478 10.6482C11.561 10.4744 10.8647 8.76753 10.574 8.07337C10.2915 7.39787 10.0042 7.49004 9.79089 7.47837C9.58691 7.46904 9.3548 7.4667 9.12269 7.4667C8.89058 7.4667 8.5131 7.55304 8.19424 7.9007C7.87421 8.2472 6.97507 9.08603 6.97507 10.7929C6.97507 12.4985 8.22238 14.147 8.39705 14.3792C8.57172 14.6102 10.853 18.1125 14.3475 19.614C15.1799 19.971 15.8281 20.1845 16.3334 20.3432C17.1681 20.608 17.9277 20.5707 18.5279 20.4808C19.1961 20.3817 20.5888 19.642 20.8795 18.8323C21.1691 18.0227 21.1691 17.3285 21.0823 17.1839C20.9956 17.0392 20.7634 16.9529 20.4141 16.779H20.4153ZM14.0592 25.4158H14.0545C11.9789 25.4162 9.94138 24.8609 8.15556 23.8082L7.73354 23.5585L3.34686 24.7042L4.51797 20.4482L4.24249 20.0118C3.08209 18.1736 2.468 16.0461 2.47117 13.8752C2.47351 7.51687 7.67141 2.34388 14.0639 2.34388C17.1587 2.34388 20.0683 3.54554 22.2558 5.72487C23.3347 6.79421 24.1899 8.06586 24.7718 9.46625C25.3537 10.8666 25.6508 12.368 25.646 13.8834C25.6436 20.2417 20.4458 25.4158 14.0592 25.4158ZM23.9204 4.06937C22.6288 2.77545 21.092 1.7495 19.399 1.05098C17.7061 0.352455 15.8907 -0.00475561 14.058 4.78071e-05C6.37486 4.78071e-05 0.119573 6.2242 0.117228 13.874C0.113668 16.3086 0.755388 18.701 1.97764 20.8098L0 28L7.39006 26.0703C9.43437 27.1788 11.7253 27.7596 14.0533 27.7597H14.0592C21.7423 27.7597 27.9976 21.5355 27.9999 13.8845C28.0056 12.0613 27.648 10.2551 26.9477 8.57041C26.2475 6.88566 25.2185 5.35582 23.9204 4.06937Z" fill="url(#paint0_linear_56_635)"/>
<defs>
<linearGradient id="paint0_linear_56_635" x1="0" y1="0" x2="35.6806" y2="24.261" gradientUnits="userSpaceOnUse">
<stop stop-color="#A7AE90"/>
<stop offset="0.875" stop-color="#6CE4B9"/>
</linearGradient>
</defs>
</svg>
