<svg width="14" height="14" viewBox="0 0 14 14" fill="none" xmlns="http://www.w3.org/2000/svg">
<path d="M7.87496 1.16669C7.87496 0.683438 7.48321 0.291687 6.99996 0.291687C6.51671 0.291687 6.12496 0.683438 6.12496 1.16669V6.12502H1.16663C0.683377 6.12502 0.291626 6.51677 0.291626 7.00002C0.291626 7.48327 0.683377 7.87502 1.16663 7.87502H6.12496V12.8334C6.12496 13.3166 6.51671 13.7084 6.99996 13.7084C7.48321 13.7084 7.87496 13.3166 7.87496 12.8334V7.87502H12.8333C13.3165 7.87502 13.7083 7.48327 13.7083 7.00002C13.7083 6.51677 13.3165 6.12502 12.8333 6.12502H7.87496V1.16669Z" fill="black"/>
</svg>
