<svg width="36" height="33" viewBox="0 0 36 33" fill="none" xmlns="http://www.w3.org/2000/svg">
<path d="M33.7896 11.2842L31.3272 3.76017C30.97 2.66472 30.2829 1.71178 29.3636 1.03676C28.4443 0.361746 27.3395 -0.00102338 26.2062 2.16842e-06H9.7938C8.6605 -0.00102338 7.55571 0.361746 6.63639 1.03676C5.71708 1.71178 5.03001 2.66472 4.6728 3.76017L2.2104 11.2842C1.5556 11.5632 0.996409 12.0332 0.60312 12.6351C0.209832 13.2369 -8.6562e-07 13.9437 0 14.6667V23.8333C0 25.1863 0.7272 26.356 1.8 26.9922V31.1667C1.8 31.6529 1.98964 32.1192 2.32721 32.463C2.66477 32.8068 3.12261 33 3.6 33H5.4C5.87739 33 6.33523 32.8068 6.67279 32.463C7.01036 32.1192 7.2 31.6529 7.2 31.1667V27.5H28.8V31.1667C28.8 31.6529 28.9896 32.1192 29.3272 32.463C29.6648 32.8068 30.1226 33 30.6 33H32.4C32.8774 33 33.3352 32.8068 33.6728 32.463C34.0104 32.1192 34.2 31.6529 34.2 31.1667V26.9922C34.7461 26.6732 35.2 26.2132 35.516 25.6587C35.832 25.1041 35.999 24.4745 36 23.8333V14.6667C36 13.9437 35.7902 13.2369 35.3969 12.6351C35.0036 12.0332 34.4444 11.5632 33.7896 11.2842ZM9.7938 3.66667H26.2044C26.9802 3.66667 27.6678 4.169 27.9126 4.92067L29.9034 11H6.0966L8.0856 4.92067C8.20503 4.55546 8.43429 4.2378 8.74089 4.01272C9.04749 3.78765 9.41586 3.66658 9.7938 3.66667ZM6.3 22C5.94531 21.9999 5.59412 21.9286 5.26648 21.7902C4.93884 21.6519 4.64116 21.4492 4.39044 21.1936C4.13972 20.9381 3.94087 20.6348 3.80525 20.301C3.66963 19.9672 3.59988 19.6094 3.6 19.2482C3.60012 18.8869 3.6701 18.5292 3.80594 18.1955C3.94178 17.8618 4.14083 17.5586 4.39171 17.3032C4.6426 17.0479 4.94041 16.8454 5.26814 16.7072C5.59588 16.5691 5.94711 16.498 6.3018 16.4982C7.01812 16.4984 7.70501 16.7885 8.21136 17.3045C8.71771 17.8206 9.00204 18.5204 9.0018 19.25C9.00156 19.9796 8.71677 20.6792 8.21009 21.1949C7.7034 21.7106 7.01632 22.0002 6.3 22ZM29.7 22C29.3453 21.9999 28.9941 21.9286 28.6665 21.7902C28.3388 21.6519 28.0412 21.4492 27.7904 21.1936C27.5397 20.9381 27.3409 20.6348 27.2052 20.301C27.0696 19.9672 26.9999 19.6094 27 19.2482C27.0001 18.8869 27.0701 18.5292 27.2059 18.1955C27.3418 17.8618 27.5408 17.5586 27.7917 17.3032C28.0426 17.0479 28.3404 16.8454 28.6681 16.7072C28.9959 16.5691 29.3471 16.498 29.7018 16.4982C30.4181 16.4984 31.105 16.7885 31.6114 17.3045C32.1177 17.8206 32.402 18.5204 32.4018 19.25C32.4016 19.9796 32.1168 20.6792 31.6101 21.1949C31.1034 21.7106 30.4163 22.0002 29.7 22Z" fill="white"/>
</svg>
