<svg width="36" height="29" viewBox="0 0 36 29" fill="none" xmlns="http://www.w3.org/2000/svg">
<path d="M32.4 0H3.6C1.6146 0 0 1.62581 0 3.625V25.375C0 27.3742 1.6146 29 3.6 29H32.4C34.3854 29 36 27.3742 36 25.375V3.625C36 1.62581 34.3854 0 32.4 0ZM12.087 7.25C14.1588 7.25 15.687 8.78881 15.687 10.875C15.687 12.9612 14.1588 14.5 12.087 14.5C10.0152 14.5 8.487 12.9612 8.487 10.875C8.487 8.78881 10.0134 7.25 12.087 7.25ZM18.774 21.75H5.4V20.9072C5.4 18.4186 8.4168 15.8594 12.087 15.8594C15.7572 15.8594 18.774 18.4186 18.774 20.9072V21.75ZM30.6 19.9375H23.4V16.3125H30.6V19.9375ZM30.6 12.6875H21.6V9.0625H30.6V12.6875Z" fill="#606362"/>
</svg>
