<svg width="46" height="44" viewBox="0 0 46 44" fill="none" xmlns="http://www.w3.org/2000/svg">
<path d="M31.9953 27.7615L32.0164 26.0345L31.9935 27.7615C31.9222 27.7606 31.85 27.7597 31.7787 27.7597L19.6172 27.7641C18.8405 27.7641 18.21 28.3838 18.21 29.1465C18.21 29.6044 18.4398 30.032 18.8255 30.29C19.2931 30.6033 19.6885 30.7635 19.84 30.7955C20.5216 30.8933 28.3433 31.7157 33.4721 32.248L33.1031 35.6846C29.1086 35.2699 19.7581 34.2944 19.2165 34.1957C18.2619 34.0234 17.3223 33.4634 16.8468 33.1457C16.3941 32.8427 16.0049 32.4714 15.6843 32.0533L15.6685 32.0697L7.23208 23.9319C6.89744 23.609 6.45273 23.4298 5.98423 23.4376C5.51486 23.4411 5.07543 23.6255 4.74607 23.9553C4.41672 24.2842 4.23883 24.7205 4.24324 25.181C4.24764 25.6433 4.43521 26.0752 4.76985 26.3981L17.8163 38.9835C18.859 39.9894 20.2381 40.5434 21.699 40.5434H45.7278V43.999H21.699C19.3108 43.999 17.0581 43.0935 15.3541 41.4488L2.30762 28.8651C1.30195 27.8956 0.740987 26.5989 0.727777 25.2139C0.714568 23.8289 1.25087 22.5227 2.23717 21.535C3.22435 20.5464 4.54265 19.995 5.95165 19.982C7.36065 19.9734 8.68952 20.4962 9.69519 21.4657L15.2828 26.856C16.115 25.3403 17.7459 24.3085 19.6172 24.3085L31.7769 24.3033C31.8632 24.3033 31.9513 24.3033 32.0384 24.305C36.3227 24.3561 40.4282 25.6788 43.9119 28.1294L45.7278 29.407V33.6564L41.8662 30.9409C38.9699 28.9032 35.5565 27.8039 31.9953 27.7615Z" fill="white"/>
<path d="M32.9038 12.3577C32.1236 11.5908 31.2474 10.9623 30.2884 10.4802C31.3354 9.33842 31.9334 7.84608 31.9334 6.27842C31.9334 2.81676 29.0687 0 25.5471 0C22.0255 0 19.1599 2.81676 19.1599 6.27842C19.1599 7.84608 19.7578 9.33842 20.8049 10.4802C19.8459 10.9623 18.9697 11.5908 18.1894 12.3577C16.2239 14.2898 15.1416 16.8582 15.1416 19.5901V20.4557H18.3911V19.5901C18.3911 15.7121 21.601 12.5568 25.5462 12.5568C29.4914 12.5568 32.7013 15.7121 32.7013 19.5901V20.4557H35.9508V19.5901C35.9517 16.8582 34.8694 14.2898 32.9038 12.3577ZM25.5471 9.36179C23.8175 9.36179 22.4094 7.97852 22.4094 6.27755C22.4094 4.57659 23.8166 3.19331 25.5471 3.19331C27.2775 3.19331 28.6847 4.57659 28.6847 6.27755C28.6847 7.97852 27.2766 9.36179 25.5471 9.36179Z" fill="white"/>
</svg>
