<svg width="13" height="12" viewBox="0 0 13 12" fill="none" xmlns="http://www.w3.org/2000/svg">
<path opacity="0.7" d="M6.15909 11.1591L5.80554 11.5126L6.15909 11.8662L6.51264 11.5126L6.15909 11.1591ZM1.0483 6.0483L1.40185 5.69474L1.0483 6.0483ZM0.232955 4.62642L-0.252646 4.74559L-0.251941 4.74839L0.232955 4.62642ZM0.237926 3.01562L0.722462 3.13902L0.722643 3.1383L0.237926 3.01562ZM1.0483 1.61364L1.39892 1.9701L1.39899 1.97003L1.0483 1.61364ZM2.4652 0.803267L2.58647 1.28834L2.58859 1.2878L2.4652 0.803267ZM4.06108 0.803267L3.93696 1.28762L3.93769 1.2878L4.06108 0.803267ZM5.48295 1.61364L5.13372 1.97146L5.13472 1.97243L5.48295 1.61364ZM6.15909 2.26989L5.81085 2.62868L6.15909 2.96667L6.50733 2.62868L6.15909 2.26989ZM6.83523 1.61364L6.48742 1.25443L6.48699 1.25485L6.83523 1.61364ZM8.2571 0.803267L8.38122 1.28762H8.38122L8.2571 0.803267ZM9.84801 0.803267L9.72389 1.28763L9.72745 1.28852L9.84801 0.803267ZM11.2699 1.61364L10.9192 1.97003L10.9193 1.9701L11.2699 1.61364ZM12.0803 3.01562L11.5955 3.1383L11.5957 3.13902L12.0803 3.01562ZM12.0803 4.62642L11.5954 4.50445L11.5947 4.50726L12.0803 4.62642ZM11.2699 6.0483L11.6234 6.40185L11.2699 6.0483ZM6.51264 10.8055L1.40185 5.69474L0.694742 6.40185L5.80554 11.5126L6.51264 10.8055ZM1.40185 5.69474C1.05575 5.34864 0.830901 4.9539 0.71785 4.50445L-0.251941 4.74839C-0.0932118 5.37943 0.225504 5.93261 0.694742 6.40185L1.40185 5.69474ZM0.718547 4.50726C0.605324 4.04587 0.607042 3.59225 0.722462 3.13902L-0.246609 2.89223C-0.40297 3.50623 -0.404566 4.12648 -0.252638 4.74558L0.718547 4.50726ZM0.722643 3.1383C0.835515 2.69232 1.05816 2.30526 1.39892 1.9701L0.697676 1.25717C0.229715 1.71746 -0.087882 2.26507 -0.246791 2.89295L0.722643 3.1383ZM1.39899 1.97003C1.75385 1.62084 2.14828 1.39789 2.58647 1.28834L2.34393 0.318196C1.72152 0.473799 1.17134 0.791089 0.697605 1.25724L1.39899 1.97003ZM2.58859 1.2878C3.04149 1.17247 3.48834 1.17266 3.93696 1.28762L4.18519 0.318917C3.57321 0.162096 2.95614 0.162287 2.34181 0.318732L2.58859 1.2878ZM3.93769 1.2878C4.38177 1.40089 4.77891 1.62516 5.13372 1.97146L5.83219 1.25582C5.3584 0.793396 4.80762 0.477422 4.18447 0.318732L3.93769 1.2878ZM5.13472 1.97243L5.81085 2.62868L6.50733 1.9111L5.83119 1.25485L5.13472 1.97243ZM6.50733 2.62868L7.18347 1.97243L6.48699 1.25485L5.81085 1.9111L6.50733 2.62868ZM7.18303 1.97285C7.54222 1.62506 7.94032 1.4006 8.38122 1.28762L8.13299 0.318917C7.51328 0.477716 6.96346 0.793503 6.48742 1.25443L7.18303 1.97285ZM8.38122 1.28762C8.83009 1.17259 9.27502 1.17259 9.7239 1.28762L9.97213 0.318917C9.3604 0.16216 8.74472 0.16216 8.13299 0.318917L8.38122 1.28762ZM9.72745 1.28852C10.1692 1.39826 10.5649 1.6214 10.9192 1.97003L11.6206 1.25724C11.1463 0.790528 10.5941 0.473422 9.96857 0.318019L9.72745 1.28852ZM10.9193 1.9701C11.26 2.30526 11.4827 2.69232 11.5955 3.1383L12.565 2.89295C12.4061 2.26507 12.0885 1.71746 11.6205 1.25717L10.9193 1.9701ZM11.5957 3.13902C11.7109 3.59117 11.7112 4.04377 11.5954 4.50445L12.5652 4.74839C12.7211 4.12858 12.7214 3.50731 12.5648 2.89223L11.5957 3.13902ZM11.5947 4.50726C11.4847 4.95545 11.2619 5.34921 10.9163 5.69474L11.6234 6.40185C12.0932 5.93204 12.4107 5.37788 12.5658 4.74558L11.5947 4.50726ZM10.9163 5.69474L5.80554 10.8055L6.51264 11.5126L11.6234 6.40185L10.9163 5.69474Z" fill="black"/>
</svg>
