<svg width="22" height="22" viewBox="0 0 22 22" fill="none" xmlns="http://www.w3.org/2000/svg">
<path fill-rule="evenodd" clip-rule="evenodd" d="M19.479 6.57827L14.093 2.12502C12.2787 0.624994 9.72126 0.624992 7.90703 2.12502L2.52097 6.57827C1.55059 7.38059 1 8.59706 1 9.8663V17.8739C1 19.5419 2.28643 21 4 21H6C7.65685 21 9 19.6569 9 18V14.6848C9 14.0044 9.50443 13.5587 10 13.5587H12C12.4956 13.5587 13 14.0044 13 14.6848V18C13 19.6569 14.3431 21 16 21H18C19.7136 21 21 19.5419 21 17.8739V9.8663C21 8.59706 20.4494 7.38059 19.479 6.57827Z" stroke="#727171" stroke-width="2"/>
</svg>
