<svg width="188" height="36" viewBox="0 0 188 36" fill="none" xmlns="http://www.w3.org/2000/svg">
<circle cx="17.7101" cy="17.7101" r="17.7101" fill="url(#paint0_linear_74_1632)"/>
<circle cx="93.9999" cy="17.7101" r="17.7101" fill="#D9D9D9"/>
<circle cx="170.29" cy="17.7101" r="17.7101" fill="#D9D9D9"/>
<path d="M19.5131 10.6278V25.2609H16.8623V13.2072H16.7765L13.3541 15.3936V12.9643L16.9909 10.6278H19.5131Z" fill="white"/>
<path d="M90.263 25.3559V23.441L95.3431 18.4609C95.829 17.9703 96.2338 17.5345 96.5578 17.1534C96.8817 16.7723 97.1246 16.4032 97.2865 16.0459C97.4485 15.6887 97.5295 15.3076 97.5295 14.9027C97.5295 14.4407 97.4247 14.0453 97.2151 13.7166C97.0055 13.3832 96.7173 13.126 96.3505 12.945C95.9838 12.764 95.567 12.6735 95.1002 12.6735C94.6191 12.6735 94.1975 12.7735 93.8355 12.9736C93.4735 13.1689 93.1924 13.4475 92.9924 13.8095C92.7971 14.1715 92.6994 14.6026 92.6994 15.1028H90.1772C90.1772 14.1739 90.3892 13.3665 90.8131 12.6806C91.2371 11.9947 91.8206 11.4636 92.5637 11.0873C93.3115 10.711 94.1689 10.5228 95.1359 10.5228C96.1171 10.5228 96.9793 10.7062 97.7224 11.073C98.4655 11.4398 99.0418 11.9423 99.4515 12.5806C99.8659 13.2189 100.073 13.9477 100.073 14.767C100.073 15.3147 99.9683 15.853 99.7587 16.3817C99.5491 16.9105 99.18 17.4964 98.6512 18.1394C98.1273 18.7825 97.3913 19.5613 96.4434 20.4758L93.9212 23.0409V23.1409H100.295V25.3559H90.263Z" fill="white"/>
<path d="M170.474 25.556C169.445 25.556 168.53 25.3797 167.73 25.0272C166.935 24.6747 166.306 24.1841 165.844 23.5553C165.382 22.9266 165.136 22.2002 165.108 21.3761H167.794C167.818 21.7715 167.949 22.1168 168.187 22.4121C168.426 22.7027 168.742 22.929 169.138 23.0909C169.533 23.2529 169.976 23.3339 170.467 23.3339C170.991 23.3339 171.455 23.2433 171.86 23.0623C172.265 22.8766 172.582 22.6193 172.81 22.2907C173.039 21.962 173.151 21.5833 173.146 21.1546C173.151 20.7116 173.036 20.321 172.803 19.9828C172.57 19.6446 172.231 19.3803 171.788 19.1897C171.35 18.9992 170.822 18.9039 170.202 18.9039H168.909V16.8605H170.202C170.712 16.8605 171.157 16.7723 171.538 16.5961C171.924 16.4198 172.227 16.1722 172.446 15.853C172.665 15.5291 172.772 15.1552 172.767 14.7312C172.772 14.3168 172.679 13.9572 172.489 13.6523C172.303 13.3427 172.039 13.1022 171.696 12.9307C171.357 12.7592 170.96 12.6735 170.502 12.6735C170.055 12.6735 169.64 12.7544 169.259 12.9164C168.878 13.0784 168.571 13.3094 168.337 13.6095C168.104 13.9048 167.98 14.2573 167.966 14.6669H165.415C165.434 13.8476 165.67 13.1284 166.122 12.5091C166.58 11.8851 167.189 11.3993 167.952 11.0515C168.714 10.6991 169.569 10.5228 170.517 10.5228C171.493 10.5228 172.341 10.7062 173.06 11.073C173.784 11.435 174.344 11.9232 174.739 12.5377C175.135 13.1522 175.332 13.831 175.332 14.574C175.337 15.3981 175.094 16.0888 174.604 16.6461C174.118 17.2034 173.479 17.5678 172.689 17.7393V17.8536C173.718 17.9965 174.506 18.3776 175.054 18.9968C175.606 19.6113 175.88 20.3758 175.875 21.2904C175.875 22.1097 175.642 22.8432 175.175 23.491C174.713 24.1341 174.075 24.639 173.26 25.0058C172.451 25.3726 171.522 25.556 170.474 25.556Z" fill="white"/>
<rect x="42.2319" y="16.3478" width="28.6087" height="1.36232" fill="#D9D9D9"/>
<rect x="118.522" y="16.3478" width="28.6087" height="1.36232" fill="#D9D9D9"/>
<rect x="42.2319" y="16.3478" width="20.4348" height="1.36232" fill="url(#paint1_linear_74_1632)"/>
<defs>
<linearGradient id="paint0_linear_74_1632" x1="0" y1="0" x2="45.1363" y2="30.6904" gradientUnits="userSpaceOnUse">
<stop stop-color="#A7AE90"/>
<stop offset="0.875" stop-color="#6CE4B9"/>
</linearGradient>
<linearGradient id="paint1_linear_74_1632" x1="42.2319" y1="16.3478" x2="42.5944" y2="20.0458" gradientUnits="userSpaceOnUse">
<stop stop-color="#A7AE90"/>
<stop offset="0.875" stop-color="#6CE4B9"/>
</linearGradient>
</defs>
</svg>
