<svg width="35" height="35" viewBox="0 0 35 35" fill="none" xmlns="http://www.w3.org/2000/svg">
<path d="M0 10.6667C0 4.77563 4.77563 0 10.6667 0H24.3333C30.2244 0 35 4.77563 35 10.6667V24.3333C35 30.2244 30.2244 35 24.3333 35H10.6667C4.77563 35 0 30.2244 0 24.3333V10.6667Z" fill="#727171"/>
<path d="M19.9203 24.5797C20.3325 24.9919 21.0008 24.9919 21.413 24.5797C21.8253 24.1675 21.8253 23.4992 21.413 23.0869L19.9203 24.5797ZM14.3333 17.5L13.5869 16.7536L12.8405 17.5L13.5869 18.2464L14.3333 17.5ZM21.413 11.9131C21.8253 11.5008 21.8253 10.8325 21.413 10.4203C21.0008 10.0081 20.3325 10.0081 19.9203 10.4203L21.413 11.9131ZM21.413 23.0869L15.0797 16.7536L13.5869 18.2464L19.9203 24.5797L21.413 23.0869ZM15.0797 18.2464L21.413 11.9131L19.9203 10.4203L13.5869 16.7536L15.0797 18.2464Z" fill="white"/>
</svg>
